<svg xmlns="http://www.w3.org/2000/svg" width="102" height="27" fill="none" viewBox="0 0 102 27">
  <path fill="#F9FAFB" d="M.85 14.104v-3.75l15-6.605v4.315L5.58 12.187l.138-.224v.533l-.138-.224 10.27 4.123v4.314l-15-6.605ZM27.576 23H19.84V1.182h7.799c2.194 0 4.083.437 5.667 1.31 1.584.867 2.802 2.113 3.654 3.74.86 1.626 1.29 3.572 1.29 5.838 0 2.272-.43 4.226-1.29 5.859-.852 1.634-2.077 2.887-3.675 3.76-1.591.874-3.495 1.311-5.71 1.311Zm-3.122-3.952h2.93c1.363 0 2.51-.242 3.44-.725.938-.49 1.641-1.246 2.11-2.269.476-1.03.714-2.358.714-3.984 0-1.613-.238-2.93-.714-3.953-.468-1.023-1.168-1.775-2.098-2.258-.93-.483-2.078-.725-3.441-.725h-2.94v13.914ZM41.067 1.182h5.69l6.008 14.659h.255L59.03 1.18h5.689V23h-4.475V8.799h-.18l-5.647 14.095H51.37L45.723 8.745h-.181V23h-4.475V1.182ZM83.68.159l-7.032 26.122h-3.91L79.77.16h3.91Zm17.47 15.99-15 6.606V18.44l10.27-4.123-.138.224v-.533l.138.224-10.27-4.123V5.795l15 6.605v3.75Z"/>
</svg>
