<svg width="165" height="49" viewBox="0 0 165 49" fill="none" xmlns="http://www.w3.org/2000/svg">
<g clip-path="url(#clip0_160_9)">
<path fill-rule="evenodd" clip-rule="evenodd" d="M2.07765 0C1.75236 0.029121 1.42707 0.121779 1.12539 0.299152C0.403987 0.717435 0 1.48252 0 2.26879C0 2.61294 0.0786989 2.9571 0.23872 3.28537L11.3353 22.7461L14.9344 16.4639L20.7896 6.26101L17.1957 0H2.07765Z" fill="#74BF42"/>
<path fill-rule="evenodd" clip-rule="evenodd" d="M17.1957 0L26.637 16.4639H33.8064L41.3484 3.24037C41.4848 2.95181 41.574 2.62089 41.574 2.26879C41.574 1.06424 40.6296 0.0767735 39.4413 0H17.1931L17.1957 0Z" fill="#00AE9D"/>
<path fill-rule="evenodd" clip-rule="evenodd" d="M33.2765 16.4639H14.9318L11.3326 22.7461L18.9297 35.9485C19.1133 36.2238 19.3547 36.4621 19.6511 36.6368C20.0079 36.8433 20.3935 36.9413 20.7818 36.9413C21.5163 36.9413 22.2377 36.568 22.6679 35.9088L33.8064 16.4639H33.2765Z" fill="#BDD62E"/>
<path fill-rule="evenodd" clip-rule="evenodd" d="M53.9323 16.0748C50.8394 14.9047 49.5278 14.4281 49.5278 13.1812C49.5278 12.0852 50.6269 11.3519 52.6233 11.3519C55.0577 11.3519 57.479 12.2626 57.9276 12.5247C58.8536 9.99116 59.3861 5.95923 52.6967 5.95923C46.5267 5.95923 42.8515 9.33461 42.8515 13.7001C42.8515 17.3614 45.6164 19.6328 49.756 21.1339C52.5157 22.0922 53.6044 22.7567 53.6044 23.9666C53.6044 25.1764 52.5157 25.9786 50.257 25.9786C47.7911 25.9786 45.3935 25.2135 43.9113 24.4405L42.6731 29.8993C44.0503 30.6326 46.9202 31.4057 49.8635 31.4057C57.0225 31.4057 60.2885 27.7761 60.2885 23.5218C60.2885 20.0802 58.3368 17.7294 53.9349 16.0774L53.9323 16.0748ZM63.4863 6.32986V31.0271H70.0603V10.3644C70.0603 7.26438 68.3919 6.33251 63.4863 6.33251V6.32986ZM91.6133 25.2002C90.5902 25.6053 88.8064 25.8965 87.2481 25.8965C82.7413 25.8965 80.097 23.1035 80.097 18.6348C80.097 13.6127 83.3578 11.3784 87.1065 11.3784C89.0661 11.3784 91.0913 11.9608 91.6448 12.2599C92.8043 9.58876 92.5236 5.95658 86.8153 5.95658C79.5146 5.95658 73.1925 10.3883 73.1925 19.0743C73.1925 25.6476 77.2245 31.3951 86.3824 31.3951C89.2943 31.3951 91.6133 30.8444 92.5157 30.3705L91.6133 25.2029V25.2002ZM131.747 26.1957L131.679 26.1877C128.523 26.1877 126.558 23.1115 126.6 18.6745C126.6 14.3858 128.523 11.156 131.679 11.156C134.835 11.156 136.765 14.3858 136.765 18.6348C136.765 23.1115 134.916 26.1957 131.747 26.1957ZM143.704 18.4151C143.704 11.8231 139.709 5.91687 131.823 5.91687H131.679C124.247 5.99364 119.654 11.6881 119.654 18.8228C119.654 25.9574 123.833 31.4348 131.427 31.4348H131.676C139.069 31.3368 143.701 26.2989 143.701 18.4177L143.704 18.4151ZM154.908 26.4419C154.627 26.4736 154.349 26.4895 154.071 26.4895C153.232 26.4895 152.652 26.4895 152.177 26.4127V20.5144H153.738C154.147 20.5144 154.533 20.5303 154.911 20.5753C156.779 20.8136 158.103 21.6634 158.103 23.408C158.103 25.3194 156.7 26.238 154.911 26.4445L154.908 26.4419ZM152.177 11.0527C152.615 10.976 153.234 10.8992 154.321 10.8992C154.517 10.8992 154.719 10.9124 154.908 10.931C156.731 11.0766 157.629 11.9476 157.629 13.2501C157.629 14.5526 156.739 15.4262 154.908 15.7174C154.475 15.7783 154.011 15.818 153.489 15.818H152.177V11.0554V11.0527ZM160.207 17.6817V17.6129C163.08 16.5116 164.202 14.497 164.202 12.4453C164.202 10.0256 162.823 8.26773 160.897 7.35174C159.289 6.539 157.531 6.23191 154.908 6.15778C154.431 6.13925 153.943 6.13925 153.413 6.13925C150.401 6.13925 147.169 6.39339 145.677 6.6846V30.8868C146.988 31.1462 149.163 31.3289 152.148 31.3289C153.137 31.3289 154.061 31.2998 154.911 31.2362C158.497 30.9927 160.771 30.2514 162.243 29.1289C163.88 27.882 165.003 26.0448 165.003 23.6965C165.003 20.7659 163.19 18.5236 160.21 17.6817H160.207ZM105.601 26.1957L105.525 26.1877C102.364 26.1877 100.399 23.1035 100.438 18.6745C100.438 14.3858 102.364 11.156 105.525 11.156C108.686 11.156 110.611 14.3858 110.611 18.6348C110.611 23.1115 108.754 26.1957 105.601 26.1957ZM105.669 5.91687H105.525C98.0876 5.99364 93.4994 11.6881 93.4994 18.8228C93.4994 25.9574 97.6783 31.4348 105.265 31.4348H105.522C112.914 31.3368 117.547 26.2989 117.547 18.4177C117.547 11.8258 113.552 5.91952 105.666 5.91952L105.669 5.91687Z" fill="white"/>
<path fill-rule="evenodd" clip-rule="evenodd" d="M111.97 46.6597C111.39 46.935 110.449 47.1177 109.544 47.1177C106.863 47.1177 105.286 45.381 105.286 42.6754C105.286 39.713 107.08 38.1405 109.562 38.1405C110.577 38.1405 111.375 38.3602 111.954 38.617L112.442 36.8248C111.988 36.5865 110.939 36.2768 109.47 36.2768C105.737 36.2768 102.949 38.7256 102.949 42.7866C102.949 46.5353 105.304 48.9841 109.182 48.9841C110.648 48.9841 111.807 48.7088 112.335 48.4361L111.973 46.6624L111.97 46.6597ZM114.09 48.7988H116.317V44.1924C116.317 43.9356 116.354 43.7 116.39 43.4988C116.59 42.4928 117.314 41.7992 118.384 41.7992C118.657 41.7992 118.856 41.8362 119.037 41.8733V39.7528C118.856 39.7157 118.73 39.6972 118.513 39.6972C117.571 39.6972 116.537 40.3378 116.102 41.598H116.028L115.955 39.8984H114.016C114.071 40.7032 114.09 41.5609 114.09 42.7681V48.8014V48.7988ZM127.859 44.976C127.896 44.7748 127.933 44.4465 127.933 44.0256C127.933 42.0692 126.991 39.6919 124.129 39.6919C121.267 39.6919 119.816 42.0136 119.816 44.4836C119.816 47.2077 121.501 48.9815 124.363 48.9815C125.63 48.9815 126.682 48.7432 127.442 48.4335L127.117 46.8795C126.445 47.1362 125.703 47.2819 124.672 47.2819C123.258 47.2819 122.009 46.5882 121.954 44.9786H127.862L127.859 44.976ZM121.952 43.4035C122.044 42.4901 122.623 41.2273 123.998 41.2273C125.483 41.2273 125.845 42.5801 125.829 43.4035H121.952ZM135.632 35.8161V40.862H135.596C135.197 40.2028 134.328 39.6919 133.114 39.6919C130.994 39.6919 129.145 41.4656 129.163 44.4465C129.163 47.1892 130.829 49 132.933 49C134.218 49 135.289 48.3779 135.813 47.3904H135.85L135.942 48.7988H137.935C137.899 48.1952 137.862 47.2077 137.862 46.2944V35.8188H135.635L135.632 35.8161ZM135.632 44.9389C135.632 45.1772 135.614 45.3969 135.559 45.5981C135.341 46.5671 134.544 47.1892 133.639 47.1892C132.225 47.1892 131.427 46.0005 131.427 44.3724C131.427 42.7443 132.225 41.4285 133.657 41.4285C134.672 41.4285 135.378 42.1407 135.577 43.0196C135.614 43.2023 135.632 43.422 135.632 43.6047V44.9389ZM142.497 48.7988V39.8957H140.252V48.7988H142.497ZM141.375 36.1815C140.632 36.1815 140.123 36.7109 140.123 37.4072C140.123 38.1035 140.611 38.6144 141.356 38.6144C142.101 38.6144 142.623 38.0849 142.623 37.4072C142.605 36.7136 142.135 36.1815 141.372 36.1815H141.375ZM144.347 48.3593C145 48.7247 145.96 48.9815 147.028 48.9815C149.365 48.9815 150.614 47.8113 150.614 46.2017C150.596 44.886 149.853 44.0627 148.258 43.4776C147.135 43.0752 146.718 42.7999 146.718 42.2333C146.718 41.6668 147.154 41.3015 147.951 41.3015C148.749 41.3015 149.436 41.5927 149.816 41.8124L150.252 40.2213C149.746 39.946 148.893 39.6919 147.915 39.6919C145.868 39.6919 144.58 40.9176 144.58 42.4901C144.562 43.5332 145.286 44.4836 147.007 45.0872C148.093 45.4711 148.458 45.7808 148.458 46.3844C148.458 46.988 148.022 47.3719 147.044 47.3719C146.246 47.3719 145.286 47.0436 144.78 46.7312L144.344 48.3593H144.347ZM160.344 39.8931H158.114V45.2699C158.114 45.5267 158.059 45.7623 157.988 45.9635C157.752 46.53 157.172 47.1707 156.285 47.1707C155.108 47.1707 154.638 46.2203 154.638 44.7377V39.8931H152.408V45.1216C152.408 48.0284 153.875 48.9973 155.488 48.9973C157.101 48.9973 157.933 48.084 158.313 47.4433H158.35L158.458 48.7961H160.415C160.378 48.0655 160.341 47.1865 160.341 46.1276V39.8931H160.344ZM162.754 48.7988H165V35.8161H162.754V48.7988Z" fill="#00AE9D"/>
</g>
<defs>
<clipPath id="clip0_160_9">
<rect width="165" height="49" fill="white"/>
</clipPath>
</defs>
</svg>
